<?xml version="1.0" encoding="utf-8"?>
<!-- Generator: Adobe Illustrator 27.1.1, SVG Export Plug-In . SVG Version: 6.00 Build 0)  -->
<svg version="1.1" id="Ebene_1" xmlns="http://www.w3.org/2000/svg" xmlns:xlink="http://www.w3.org/1999/xlink" x="0px" y="0px"
	 viewBox="0 0 48 48" enable-background="new 0 0 48 48" xml:space="preserve">
<g id="my-account">
	<path fill="#95CAEB" d="M40.179,38.903C43.791,34.984,46,29.751,46,24c0-12.15-9.85-22-22-22S2,11.85,2,24
		c0,5.751,2.209,10.984,5.821,14.903H40.179z"/>
	<path fill="#001B41" d="M24,32.25c-6.4,0-12.159,2.564-16.179,6.653C11.841,43.265,17.6,46,24,46s12.159-2.735,16.179-7.097
		C36.159,34.814,30.4,32.25,24,32.25z"/>
	<path fill="#1474C4" d="M35,18.5c0,6.075-4.925,11-11,11s-11-4.925-11-11H35z"/>
	<path fill="#001B41" d="M13,18.5c0-6.075,4.925-11,11-11s11,4.925,11,11H13z"/>
</g>
</svg>
