<?xml version="1.0" encoding="UTF-8"?><svg id="Icon_export" xmlns="http://www.w3.org/2000/svg" viewBox="0 0 48 48"><path d="m4,17c0-.552.448-1,1-1h38c.552,0,1,.448,1,1v6H4v-6Z" style="fill:#001b41;"/><rect x="8" y="7" width="32" height="21" style="fill:#1474c4;"/><path d="m8,6v1l16,14,16-14v-1c0-.552-.448-1-1-1H9c-.552,0-1,.448-1,1Z" style="fill:#001b41;"/><path d="m14.868,23H4v19c0,.552.448,1,1,1h38c.552,0,1-.448,1-1v-19h-10.868c-.703,0-1.354.369-1.715.971l-1.835,3.058c-.361.602-1.012.971-1.715.971h-7.735c-.703,0-1.354-.369-1.715-.971l-1.835-3.058c-.361-.602-1.012-.971-1.715-.971Z" style="fill:#95caeb; fill-rule:evenodd;"/></svg>