<?xml version="1.0" encoding="UTF-8"?><svg id="Icon_export" xmlns="http://www.w3.org/2000/svg" viewBox="0 0 48 48"><path d="m35,12h-.474c-2.169-4.157-6.512-7-11.526-7-7.18,0-13,5.82-13,13-4.418,0-8,3.582-8,8s3.582,8,8,8h25c6.075,0,11-4.925,11-11s-4.925-11-11-11Z" style="fill:#95caeb; fill-rule:evenodd;"/><path d="m25,34h5l-10,10-10-10h5v-8c0-.552.448-1,1-1h9v9Z" style="fill:#1474c4;"/><path d="m25,25h-5s10-10,10-10l10,10h-5s0,8,0,8c0,.552-.448,1-1,1h-9s0-9,0-9Z" style="fill:#001b41;"/><path d="m35,12h-.474c-2.169-4.157-6.512-7-11.526-7-7.18,0-13,5.82-13,13-4.418,0-8,3.582-8,8s3.582,8,8,8h25c6.075,0,11-4.925,11-11s-4.925-11-11-11Z" style="fill:#95caeb; fill-rule:evenodd;"/><path d="m25,34h5l-10,10-10-10h5v-8c0-.552.448-1,1-1h9v9Z" style="fill:#1474c4;"/><path d="m25,25h-5s10-10,10-10l10,10h-5s0,8,0,8c0,.552-.448,1-1,1h-9s0-9,0-9Z" style="fill:#001b41;"/><rect width="48" height="48" style="fill:none;"/></svg>