<?xml version="1.0" encoding="UTF-8"?>
<svg version="1.1" xmlns="http://www.w3.org/2000/svg" width="81" height="85">
<path d="M0 0 C26.73 0 53.46 0 81 0 C81 28.05 81 56.1 81 85 C54.27 85 27.54 85 0 85 C0 56.95 0 28.9 0 0 Z " fill="#93C8E9" transform="translate(0,0)"/>
<path d="M0 0 C26.73 0 53.46 0 81 0 C81 28.05 81 56.1 81 85 C54.27 85 27.54 85 0 85 C0 56.95 0 28.9 0 0 Z M16 9 C15.67 16.26 15.34 23.52 15 31 C12.36 32.65 9.72 34.3 7 36 C6.23994916 39.54944744 6.02851484 41.89425452 6.18359375 45.421875 C6.19254166 46.32246643 6.20148956 47.22305786 6.21070862 48.15093994 C6.24877044 51.01937377 6.34298909 53.8829286 6.4375 56.75 C6.46906298 58.69395576 6.49709771 60.63797222 6.52148438 62.58203125 C5.94869613 70.8513162 5.94869613 70.8513162 8 78 C10.08075409 78.09943972 12.16491848 78.12799596 14.24804688 78.12939453 C14.90007584 78.13114685 15.5521048 78.13289917 16.22389221 78.13470459 C18.38887153 78.13912204 20.55376979 78.13618551 22.71875 78.1328125 C24.21708187 78.13348557 25.71541363 78.13445562 27.21374512 78.13571167 C30.35783933 78.1371885 33.50190517 78.13503458 36.64599609 78.13037109 C40.68486539 78.1246738 44.72366824 78.12795289 48.7625351 78.13394356 C51.8576508 78.13754958 54.95275065 78.13641039 58.04786682 78.13381577 C59.53748075 78.13314661 61.0270961 78.13397452 62.51670837 78.13629532 C64.59516235 78.13882253 66.67350731 78.13498033 68.75195312 78.12939453 C69.93696411 78.12859894 71.1219751 78.12780334 72.34289551 78.12698364 C74.9219334 78.30224873 74.9219334 78.30224873 76 77 C76.36526721 71.23137389 76.44240074 65.46104202 76.51489258 59.68212891 C76.54651996 57.73420674 76.59426184 55.78647675 76.65844727 53.83935547 C76.74974283 51.0327916 76.78850886 48.22969984 76.81640625 45.421875 C76.87363609 44.1200528 76.87363609 44.1200528 76.93202209 42.79193115 C77.00813548 39.9834935 77.00813548 39.9834935 76 36 C73.36 34.35 70.72 32.7 68 31 C67.67 23.74 67.34 16.48 67 9 C50.17 9 33.34 9 16 9 Z " fill="#FEFEFE" transform="translate(0,0)"/>
<path d="M0 0 C-0.18304688 0.85980469 -0.36609375 1.71960937 -0.5546875 2.60546875 C-0.93397759 6.84704206 -1.12339459 10.25921906 1 14 C7.87456083 20.12489153 17.27195774 25.09065258 26 28 C34.02844599 24.98448653 46.69054231 19.53031279 51.22167969 11.95849609 C52.40162533 7.89193302 51.98684541 4.05840175 51 0 C52.313702 0.6433848 53.62592898 1.28978215 54.9375 1.9375 C56.03384766 2.47697266 56.03384766 2.47697266 57.15234375 3.02734375 C59 4 59 4 60 5 C60.101137 8.01808063 60.13968909 11.01280513 60.1328125 14.03125 C60.13376923 14.93750122 60.13472595 15.84375244 60.13571167 16.77746582 C60.13639353 18.69751047 60.13453882 20.61755741 60.13037109 22.53759766 C60.12502292 25.48735704 60.13031588 28.43696414 60.13671875 31.38671875 C60.13605797 33.24739617 60.13477681 35.1080735 60.1328125 36.96875 C60.13483673 37.85727661 60.13686096 38.74580322 60.13894653 39.66125488 C60.11494988 45.88505012 60.11494988 45.88505012 59 47 C56.91924591 47.09943972 54.83508152 47.12799596 52.75195312 47.12939453 C52.09992416 47.13114685 51.4478952 47.13289917 50.77610779 47.13470459 C48.61112847 47.13912204 46.44623021 47.13618551 44.28125 47.1328125 C42.78291813 47.13348557 41.28458637 47.13445562 39.78625488 47.13571167 C36.64216067 47.1371885 33.49809483 47.13503458 30.35400391 47.13037109 C26.31513461 47.1246738 22.27633176 47.12795289 18.2374649 47.13394356 C15.1423492 47.13754958 12.04724935 47.13641039 8.95213318 47.13381577 C7.46251925 47.13314661 5.9729039 47.13397452 4.48329163 47.13629532 C2.40483765 47.13882253 0.32649269 47.13498033 -1.75195312 47.12939453 C-3.5294696 47.12820114 -3.5294696 47.12820114 -5.34289551 47.12698364 C-8 47 -8 47 -9 46 C-9.36526721 40.23137389 -9.44240074 34.46104202 -9.51489258 28.68212891 C-9.54651996 26.73420674 -9.59426184 24.78647675 -9.65844727 22.83935547 C-9.74974283 20.0327916 -9.78850886 17.22969984 -9.81640625 14.421875 C-9.85455948 13.55399353 -9.89271271 12.68611206 -9.93202209 11.79193115 C-9.92396667 9.28253482 -9.83723719 7.36884502 -9 5 C-6.71717132 2.85226527 -3.31551401 0 0 0 Z " fill="#1473C3" transform="translate(16,31)"/>
<path d="M0 0 C1.313702 0.6433848 2.62592898 1.28978215 3.9375 1.9375 C4.66839844 2.29714844 5.39929688 2.65679687 6.15234375 3.02734375 C8 4 8 4 9 5 C9.08871273 8.02977804 9.1151935 11.03667022 9.09765625 14.06640625 C9.0962413 14.97502914 9.09482635 15.88365204 9.09336853 16.81980896 C9.08775193 19.73407221 9.07519665 22.64825981 9.0625 25.5625 C9.05748714 27.53320202 9.05292386 29.50390524 9.04882812 31.47460938 C9.03777711 36.31643559 9.02050138 41.15820495 9 46 C5.30877686 47.12704468 5.30877686 47.12704468 2.52978516 45.98364258 C1.62534668 45.45923584 0.7209082 44.9348291 -0.2109375 44.39453125 C-1.20867187 43.82283203 -2.20640625 43.25113281 -3.234375 42.66210938 C-4.27078125 42.05173828 -5.3071875 41.44136719 -6.375 40.8125 C-7.40367188 40.22146484 -8.43234375 39.63042969 -9.4921875 39.02148438 C-14.43725264 36.16341515 -19.30373681 33.25187984 -24 30 C-23 27 -23 27 -20.8828125 25.68823242 C-19.97273438 25.24842041 -19.06265625 24.8086084 -18.125 24.35546875 C-7.72627596 19.71111378 -7.72627596 19.71111378 0.13574219 12.0234375 C1.24531953 7.95963539 0.86657826 4.07047677 0 0 Z " fill="#011D43" transform="translate(67,31)"/>
<path d="M0 0 C5.53385469 4.52769929 5.53385469 4.52769929 5.99609375 8.2109375 C6.0625 10.375 6.0625 10.375 5.75 14.25 C2.97190605 17.02809395 1.18244797 16.54955703 -2.6875 16.5625 C-4.41806641 16.58763672 -4.41806641 16.58763672 -6.18359375 16.61328125 C-9.25 16.25 -9.25 16.25 -11.16796875 14.921875 C-12.25 13.25 -12.25 13.25 -12.125 10.1875 C-11.25 7.25 -11.25 7.25 -8.25 5.25 C-5.75 5.1875 -5.75 5.1875 -3.25 6.25 C-1.4375 9.8125 -1.4375 9.8125 -0.25 13.25 C0.74 13.25 1.73 13.25 2.75 13.25 C3.2268708 8.17831264 3.2268708 8.17831264 0.875 3.875 C-2.92671577 0.96780559 -5.4557644 0.77057644 -10.25 1.25 C-13.84524336 3.00990314 -13.84524336 3.00990314 -16.25 6.25 C-17.05347713 9.42373465 -17.01035188 12.07034669 -16.25 15.25 C-13.63808043 19.04915574 -12.14497967 20.06483179 -7.625 21 C-6.51125 21.0825 -5.3975 21.165 -4.25 21.25 C-3.26 21.58 -2.27 21.91 -1.25 22.25 C-2.89156736 23.89156736 -4.74215801 23.53815992 -7 23.625 C-10.96265154 23.59103442 -11.96018215 23.46736339 -15.25 21 C-18.4396542 16.61422548 -19.7735516 13.92297366 -19.63671875 8.28125 C-18.81695498 3.97542011 -15.8313456 1.40965344 -12.375 -1.125 C-7.67328643 -2.50785693 -4.31928681 -2.32576982 0 0 Z " fill="#102E54" transform="translate(48.25,19.75)"/>
<path d="M0 0 C4.44230769 3.63461538 4.44230769 3.63461538 5.75 6.25 C5.4375 9.5 5.4375 9.5 4.75 12.25 C4.42 12.25 4.09 12.25 3.75 12.25 C3.481875 11.156875 3.21375 10.06375 2.9375 8.9375 C1.65691688 4.94133728 1.65691688 4.94133728 -1.25 2.25 C-4.39911479 0.67544261 -6.77008816 0.90200882 -10.25 1.25 C-13.84524336 3.00990314 -13.84524336 3.00990314 -16.25 6.25 C-17.05347713 9.42373465 -17.01035188 12.07034669 -16.25 15.25 C-13.63808043 19.04915574 -12.14497967 20.06483179 -7.625 21 C-6.51125 21.0825 -5.3975 21.165 -4.25 21.25 C-3.26 21.58 -2.27 21.91 -1.25 22.25 C-2.89156736 23.89156736 -4.74215801 23.53815992 -7 23.625 C-10.96265154 23.59103442 -11.96018215 23.46736339 -15.25 21 C-18.4396542 16.61422548 -19.7735516 13.92297366 -19.63671875 8.28125 C-18.81695498 3.97542011 -15.8313456 1.40965344 -12.375 -1.125 C-7.67328643 -2.50785693 -4.31928681 -2.32576982 0 0 Z " fill="#1B3B60" transform="translate(48.25,19.75)"/>
<path d="M0 0 C6.15234375 2.63671875 6.15234375 2.63671875 8 4 C8.33 5.65 8.66 7.3 9 9 C6.03 10.65 3.06 12.3 0 14 C0 9.38 0 4.76 0 0 Z " fill="#1875C3" transform="translate(67,31)"/>
<path d="M0 0 C0 4.62 0 9.24 0 14 C-2.97 12.35 -5.94 10.7 -9 9 C-8 4 -8 4 -6.40625 2.63671875 C-1.11111111 0 -1.11111111 0 0 0 Z " fill="#052146" transform="translate(16,31)"/>
<path d="M0 0 C2.125 0.375 2.125 0.375 4 1 C4.38218767 2.65614657 4.71395102 4.32457024 5 6 C4 7 4 7 1.4375 7.0625 C0.2309375 7.0315625 0.2309375 7.0315625 -1 7 C-1.625 4.625 -1.625 4.625 -2 2 C-1.34 1.34 -0.68 0.68 0 0 Z " fill="#89BCDD" transform="translate(40,27)"/>
<path d="M0 0 C1.33037532 1.99556299 2.62268277 4.01704853 3.875 6.0625 C6.30628876 9.51188511 6.30628876 9.51188511 10 11 C12.69087876 11.14489347 15.30035311 11.08998823 18 11 C17.67 11.66 17.34 12.32 17 13 C8.04347826 13.7826087 8.04347826 13.7826087 4 10.75 C1.06375456 6.71266252 0 5.0794398 0 0 Z " fill="#0E2C51" transform="translate(29,30)"/>
<path d="M0 0 C2.6875 0.3125 2.6875 0.3125 5 1 C5 1.99 5 2.98 5 4 C4.236875 3.835 3.47375 3.67 2.6875 3.5 C-0.03596236 2.90854604 -0.03596236 2.90854604 -3 3 C-1.8125 1.4375 -1.8125 1.4375 0 0 Z " fill="#204166" transform="translate(40,25)"/>
</svg>
